/* XPM */
static char *Pixmap[] = {
"32 32 256 3",
"000 c #373535",
"001 c #383635",
"002 c #3D3936",
"003 c #413B35",
"004 c #4B4335",
"005 c #49433A",
"006 c #514635",
"007 c #544936",
"008 c #544C3B",
"009 c #594D35",
"010 c #5D4D36",
"011 c #5F5135",
"012 c #5C523C",
"013 c #625435",
"014 c #62553C",
"015 c #665837",
"016 c #65593D",
"017 c #6B5A35",
"018 c #6D5B39",
"019 c #715E34",
"020 c #725C38",
"021 c #766234",
"022 c #75643B",
"023 c #796435",
"024 c #7B6238",
"025 c #7D6936",
"026 c #7F6C3B",
"027 c #4A4741",
"028 c #5E5440",
"029 c #5B574C",
"030 c #6A5E42",
"031 c #66604F",
"032 c #746640",
"033 c #776840",
"034 c #826738",
"035 c #836C35",
"036 c #836938",
"037 c #886D36",
"038 c #896D38",
"039 c #86723E",
"040 c #8C7333",
"041 c #8C703F",
"042 c #917535",
"043 c #93743A",
"044 c #937A35",
"045 c #98773A",
"046 c #997D36",
"047 c #9E7C3D",
"048 c #A17D3A",
"049 c #847349",
"050 c #8D7943",
"051 c #937641",
"052 c #907A46",
"053 c #907D4B",
"054 c #9C7D44",
"055 c #927F54",
"056 c #9F8232",
"057 c #9F843A",
"058 c #A38635",
"059 c #A6823A",
"060 c #A68937",
"061 c #A48839",
"062 c #A8823C",
"063 c #AD8C33",
"064 c #AE883A",
"065 c #B08D36",
"066 c #B28C39",
"067 c #B58D3A",
"068 c #B78E3C",
"069 c #B88E3C",
"070 c #B39233",
"071 c #B69538",
"072 c #B99533",
"073 c #BB903C",
"074 c #BC9837",
"075 c #BC9C3D",
"076 c #94804C",
"077 c #9B8450",
"078 c #9C8B5E",
"079 c #84806B",
"080 c #8D8569",
"081 c #968760",
"082 c #9F926F",
"083 c #A98F44",
"084 c #AB9145",
"085 c #AA9455",
"086 c #B79845",
"087 c #B89A41",
"088 c #BC9C54",
"089 c #A89662",
"090 c #BEA14E",
"091 c #C2953E",
"092 c #C4963E",
"093 c #C29C34",
"094 c #C39839",
"095 c #C79A39",
"096 c #C5983C",
"097 c #C89A3C",
"098 c #CA9D3B",
"099 c #C99C3C",
"100 c #CC9F3A",
"101 c #CC9D3C",
"102 c #C7A232",
"103 c #C5A038",
"104 c #CCA334",
"105 c #CDA238",
"106 c #CFA939",
"107 c #DAAE2F",
"108 c #D0A436",
"109 c #D3A439",
"110 c #D6AA34",
"111 c #D6AB38",
"112 c #D9AB35",
"113 c #DAAB3A",
"114 c #DFB32F",
"115 c #DDB033",
"116 c #DBB238",
"117 c #E2B52F",
"118 c #E7B92F",
"119 c #EABB2E",
"120 c #E2B432",
"121 c #E2B638",
"122 c #E6B931",
"123 c #E4BA38",
"124 c #EABC33",
"125 c #EABD38",
"126 c #C69841",
"127 c #C99E48",
"128 c #C0A143",
"129 c #C2A24C",
"130 c #CBA24C",
"131 c #C7AC5C",
"132 c #C9A554",
"133 c #CEA754",
"134 c #CCA458",
"135 c #CDAF57",
"136 c #CEB057",
"137 c #CDB15E",
"138 c #D4AF40",
"139 c #D0A84E",
"140 c #D1AB55",
"141 c #D1AC59",
"142 c #D8B240",
"143 c #DBB14B",
"144 c #D9B64D",
"145 c #DFB34D",
"146 c #D6B553",
"147 c #D8B859",
"148 c #C2AA65",
"149 c #C4AB6C",
"150 c #C6B57B",
"151 c #D0AA62",
"152 c #D0AD61",
"153 c #D4AF62",
"154 c #D2B564",
"155 c #D5B161",
"156 c #D3B26A",
"157 c #D6BA69",
"158 c #DAB968",
"159 c #D5B271",
"160 c #D4B376",
"161 c #D5BC73",
"162 c #D4B97B",
"163 c #D9B970",
"164 c #E5BD44",
"165 c #E3BF4F",
"166 c #E2BE54",
"167 c #ECC03B",
"168 c #F2C237",
"169 c #F4C438",
"170 c #F8C839",
"171 c #DDC06A",
"172 c #DFC272",
"173 c #DFC27E",
"174 c #EBC244",
"175 c #ECC44C",
"176 c #E6C156",
"177 c #ECC654",
"178 c #EDC857",
"179 c #EDC95E",
"180 c #F0C448",
"181 c #FACD44",
"182 c #F1C754",
"183 c #F2CB57",
"184 c #F6CE5E",
"185 c #F8CF55",
"186 c #FDD358",
"187 c #E4C465",
"188 c #ECCA64",
"189 c #EACB6C",
"190 c #E0C379",
"191 c #E5CA7D",
"192 c #ECCE72",
"193 c #EED075",
"194 c #EDD17B",
"195 c #FDD86D",
"196 c #F6D67C",
"197 c #FCD975",
"198 c #FDDB7A",
"199 c #ABA384",
"200 c #B8AB83",
"201 c #C3B78F",
"202 c #CBB982",
"203 c #D6BF82",
"204 c #D0C089",
"205 c #DAC581",
"206 c #DDC689",
"207 c #D1C597",
"208 c #D6CA9A",
"209 c #E0C582",
"210 c #E7CE83",
"211 c #E5CC8C",
"212 c #EDD484",
"213 c #EDD589",
"214 c #EFD88E",
"215 c #E7D196",
"216 c #E4D19A",
"217 c #E8D396",
"218 c #E9D49A",
"219 c #EFDA91",
"220 c #F4DB8B",
"221 c #FDDE82",
"222 c #FADF8D",
"223 c #F0DA93",
"224 c #F2DE9B",
"225 c #FCDE94",
"226 c #E3CFAA",
"227 c #E1D6A5",
"228 c #F0DFA8",
"229 c #FFE084",
"230 c #F3E09F",
"231 c #FEE393",
"232 c #FCE49A",
"233 c #FEE99F",
"234 c #EFE3AD",
"235 c #F4E2A1",
"236 c #F2E1A8",
"237 c #FAE5A2",
"238 c #F5E8B6",
"239 c #F4E8BB",
"240 c #F9EBB3",
"241 c #FAEEBB",
"242 c #FFF1B4",
"243 c #F0E3C6",
"244 c #F6ECCE",
"245 c #FAEFC3",
"246 c #F9EFCD",
"247 c #FDF3C1",
"248 c #FFF5CE",
"249 c #FFF8C8",
"250 c #FCF4D4",
"251 c #F8F1D8",
"252 c #FEF4D8",
"253 c #FEF6E0",
"254 c #FFFEF9",
"255 c #FFFFFE",
"255255255255255255255255255255255255255255255255255255255255255255255255255255255255255255255255",
"255255255255255255255255255255255251151092127133153163173211217160255255255255255255255255255255",
"255255255255255255255255255246140143099096097010069067010043091185238215255255255255255255255255",
"255255255255255255255248158184096099059125105046167000070094034099036145249243255255255255255255",
"255255255255255255237172092064113113123065001000003169017125169019170004092233237255255255255255",
"255255255255255223191020101044168015000170104170117170168000170009001009002006196231255255255255",
"255255255255232213004121037109017072104107119004037063072118011125115025042024045222222255255255",
"255255255253223036100106112115122122021125004138241209013125070119009125019105167003231235255255",
"255255255235126101121003006011070124174003177146029077177005174106004013169046168109069195255255",
"255255197240096105108170017056013087178147187200000002085188090018026025107021167046094134197255",
"255255240073009009121168119013002014131193194149000000202193002135165174070006169167109097186255",
"255225240043112111025118125174050016194212214150000000205213161171136083167114120108042097215250",
"255242209096111125093006164165187193213219089204000000181220214194030033174124122035002038048181",
"255247092060000116122124087179192212214129232197000000000166223213193188039167118120065167034181",
"255247097100093037118167144188194213229005221000080000000183224214194189178174019170170168097181",
"255247097074111009114167177049194214249000249000207000000183230223212192015174058124060004097182",
"255247010023000037107167178001194219218000216000227000000147202208212157008174102093115006036175",
"255247011169167058117167177189194214212000156000223000000130000195212189032174046169125017099180",
"255247018125109125118167175188193078055012014000000000000076000195194008178075042121104000097181",
"255247092013009169035124022032192194219219000000000000000000079154193188175071118104065123096181",
"255242127099109103170040167177188193212210000000000000000000217149012011174122009168170020096181",
"255252240024046121009093124174176137148212240000000000000130194049016175060046114046168099139241",
"255255240091037042112120118042128146188189193000000000205192053014006057119035093109095007186255",
"255255198230059066109112104070116174177052188001022089173135177026015056040115009067096141197255",
"255255255235133099095037072042119124061164084003089000203004142123021019115037109098062195255255",
"255255255237223073059064110112009063040031132014199000228082011086110110112109100010221238255255",
"255255255255232212009069100105172000102005000081078028151000107000234109004098045220222255255255",
"255255255255255223191073101100218000162051000201041000206000043000216105101004232231255255255255",
"255255255255255255238172156048038000000088000227052000239000051000054092091242237255255255255255",
"255255255255255255255254158155126027000156000221078000220001000000092240249190255255255255255255",
"255255255255255255255255255245140130241047000174199000164007215228238216255255255255255255255255",
"255255255255255255255255255255255244159092127133153163173211218226255255255255255255255255255255"
};
