/* XPM */
static char *Pixmap[] = {
"64 64 256 3",
"000 c #373535",
"001 c #433D35",
"002 c #474035",
"003 c #46423B",
"004 c #4B4235",
"005 c #4A443A",
"006 c #4F4839",
"007 c #514635",
"008 c #544935",
"009 c #534B3A",
"010 c #5A4D35",
"011 c #594E39",
"012 c #5C5138",
"013 c #604F36",
"014 c #665637",
"015 c #715D37",
"016 c #6F603A",
"017 c #786436",
"018 c #4A4741",
"019 c #534D43",
"020 c #5B5546",
"021 c #655B45",
"022 c #6C6048",
"023 c #696352",
"024 c #756745",
"025 c #746C56",
"026 c #7C7051",
"027 c #787462",
"028 c #856C36",
"029 c #84713E",
"030 c #8C7334",
"031 c #8D713A",
"032 c #8F7A3F",
"033 c #917535",
"034 c #937439",
"035 c #947A35",
"036 c #947C3C",
"037 c #987739",
"038 c #9A7D35",
"039 c #9C7A3A",
"040 c #A17E3A",
"041 c #8A7747",
"042 c #877D5B",
"043 c #927B47",
"044 c #917F52",
"045 c #A07E40",
"046 c #9D8236",
"047 c #A88737",
"048 c #B08E34",
"049 c #B48C3A",
"050 c #B88E3C",
"051 c #B99437",
"052 c #8F815B",
"053 c #988248",
"054 c #9B8857",
"055 c #898369",
"056 c #988B65",
"057 c #9E916A",
"058 c #A68A47",
"059 c #A18C50",
"060 c #AA914A",
"061 c #A99356",
"062 c #B28D46",
"063 c #B69746",
"064 c #BA9C55",
"065 c #A69565",
"066 c #AB9C72",
"067 c #B59D66",
"068 c #BDA14D",
"069 c #BCA156",
"070 c #A9A07B",
"071 c #BAA464",
"072 c #B7A777",
"073 c #C69F2F",
"074 c #C4963D",
"075 c #C39C34",
"076 c #C5983C",
"077 c #CA9B3C",
"078 c #CEA52F",
"079 c #C6A131",
"080 c #C5A038",
"081 c #CBA333",
"082 c #CDA239",
"083 c #CFA832",
"084 c #CFA939",
"085 c #D6AC2F",
"086 c #D0A436",
"087 c #D2A439",
"088 c #D4A933",
"089 c #D5A938",
"090 c #DAAC34",
"091 c #DAAC3A",
"092 c #DCB12E",
"093 c #DCB135",
"094 c #E8B92E",
"095 c #E2B432",
"096 c #E1B538",
"097 c #E6B831",
"098 c #E5B938",
"099 c #EABC33",
"100 c #EABD38",
"101 c #C59941",
"102 c #C49B49",
"103 c #C99C44",
"104 c #C99D49",
"105 c #C19E53",
"106 c #C0A143",
"107 c #C2A44D",
"108 c #C7A84B",
"109 c #CBA442",
"110 c #CBA24C",
"111 c #CAA843",
"112 c #CBAB4A",
"113 c #C7A75C",
"114 c #C6AA5B",
"115 c #CDA553",
"116 c #CCA458",
"117 c #CBAC54",
"118 c #CCA85C",
"119 c #CCB05C",
"120 c #D1A543",
"121 c #D3AC41",
"122 c #D2A94C",
"123 c #D1AA54",
"124 c #D1AC5A",
"125 c #D6B245",
"126 c #D4B34C",
"127 c #D9B443",
"128 c #DBB34C",
"129 c #DDBA4E",
"130 c #D7B657",
"131 c #C5AA67",
"132 c #C7AE73",
"133 c #CCB167",
"134 c #C8B479",
"135 c #D2AD62",
"136 c #D3AF6A",
"137 c #D3B262",
"138 c #D4B26A",
"139 c #D5B969",
"140 c #D8B564",
"141 c #D8B66A",
"142 c #DDBE62",
"143 c #DABB6B",
"144 c #D5B472",
"145 c #D5BB74",
"146 c #D5BA7B",
"147 c #DABB73",
"148 c #DBBD7C",
"149 c #E4BD47",
"150 c #E2BE54",
"151 c #ECC03A",
"152 c #F2C136",
"153 c #F4C438",
"154 c #F8C739",
"155 c #F9C839",
"156 c #DDC06A",
"157 c #DEC172",
"158 c #DCC27C",
"159 c #EBC346",
"160 c #EBC555",
"161 c #F0C448",
"162 c #F5C845",
"163 c #F6CA4E",
"164 c #FACC44",
"165 c #F9CC4D",
"166 c #F1C754",
"167 c #F2CA56",
"168 c #F6CE5E",
"169 c #F8CF55",
"170 c #F8CF59",
"171 c #FDD04E",
"172 c #FCD35A",
"173 c #EAC966",
"174 c #E8CB75",
"175 c #EDD079",
"176 c #F2CD61",
"177 c #F1CE6F",
"178 c #FAD467",
"179 c #FCD977",
"180 c #ABA384",
"181 c #B8AB83",
"182 c #BDB186",
"183 c #C7B988",
"184 c #D5BD81",
"185 c #CBC197",
"186 c #D4C183",
"187 c #D0C089",
"188 c #DBC583",
"189 c #DEC589",
"190 c #DDC884",
"191 c #DFCB88",
"192 c #D9CA97",
"193 c #D3CBA6",
"194 c #D9D1A9",
"195 c #E0C584",
"196 c #E4CB83",
"197 c #E4CC8B",
"198 c #E3CC94",
"199 c #EDD588",
"200 c #E6D093",
"201 c #E3D19A",
"202 c #E9D295",
"203 c #E9D49A",
"204 c #EED991",
"205 c #EBD999",
"206 c #F9DC87",
"207 c #F1DC95",
"208 c #E2CDAB",
"209 c #E3D6A4",
"210 c #E5D2AC",
"211 c #E9D5A2",
"212 c #EBD9A1",
"213 c #E8DCAB",
"214 c #E9DEB5",
"215 c #F0DEA4",
"216 c #F0DFA8",
"217 c #F0DFB3",
"218 c #FEE088",
"219 c #FAE398",
"220 c #EFE3AD",
"221 c #ECE2B4",
"222 c #F4E2A2",
"223 c #F3E3AA",
"224 c #FAE4A2",
"225 c #FCE4A9",
"226 c #FEE9A3",
"227 c #FCECAB",
"228 c #F1E3B3",
"229 c #F6E8B4",
"230 c #F5E9B9",
"231 c #F9EAB3",
"232 c #F9EDBA",
"233 c #FEF2BA",
"234 c #E8D8C2",
"235 c #ECDFCC",
"236 c #F0E3C6",
"237 c #F3E7CE",
"238 c #F4EACD",
"239 c #FAEFC3",
"240 c #FBEFCD",
"241 c #F5ECD5",
"242 c #F2E9DB",
"243 c #FDF4C4",
"244 c #FCF1D5",
"245 c #FBF2D9",
"246 c #FEFAD8",
"247 c #F7F1E4",
"248 c #FBF5E1",
"249 c #FFF8E1",
"250 c #FFFBEE",
"251 c #FEFBF2",
"252 c #FEFEFE",
"253 c black",
"254 c black",
"255 c black",
"252252252252252252252252252252252252252252252252252252252252252252252252252252252252252252252252252252252252252252252252252252252252252252252252252252252252252252252252252252252252252252252252",
"252252252252252252252252252252252252252252252252252252252252252252252252252247237197189144144137135141148147144104208242252252252252252252252252252252252252252252252252252252252252252252252252",
"252252252252252252252252252252252252252252252252252252252252252252245203135101101101104110115124137138143148158196197200202135144252252252252252252252252252252252252252252252252252252252252252",
"252252252252252252252252252252252252252252252252252252252250230137110104103109100151091074101074074074074076082096162177202212216223189210252252252252252252252252252252252252252252252252252252",
"252252252252252252252252252252252252252252252252252251240124123115128162077074076076077074010050050050049031013004034074074120169223230232200210252252252252252252252252252252252252252252252252",
"252252252252252252252252252252252252252252252252246140137123167120074076077077077077050037017004001001014028047077077077039001049074159224239243197252252252252252252252252252252252252252252252",
"252252252252252252252252252252252252252252244197143140168077074077077047040035100155087096038082100012000000051096074093028074077034028074128231243243236252252252252252252252252252252252252252",
"252252252252252252252252252252252252252227157156156122010076077077087153154087002000153152001087012098093093084087100000000080153091077050015074176233233202250252252252252252252252252252252252",
"252252252252252252252252252252252252224157157179074002049077091046091017098089048151000048000028001153153001015098100014153155015086155082002077074103226227224238252252252252252252252252252252",
"252252252252252252252252252252250207196157173049040077087096000153096154002013151047098028000152100001098098000093007098015096089047015002100039034007074218226219217252252252252252252252252252",
"252252252252252252252252252250204196174123015077077087033035153017014081000152154008083095155152095152153153153100000035154154010154000153010082000077007074179219219228252252252252252252252252",
"252252252252252252252252252219196199104008077049082077086000000153100038035089099046097095094097094097015010065038097154028000095000017038153000089002077014074206219218245252252252252252252252",
"252252252252252252252252224199199110002077096074028087089086014048051095078004085085094092002035030033048131051094094030014152100014093002028096033082017074034074206218218251252252252252252252",
"252252252252252252252225207199141008077082030153089089090035000153051047094094017035097099100098110137196047096081004073094088001099017013155007088074075031049031074219218207252252252252252252",
"252252252252252252249207207207028077077051084098090090093090097015094083017099100080004036121199232137195158014046151100051030094073010153151090015088082153151049001074219179222252252252252252",
"252252252252252252222207227074074077075047153002155084095035085094013099098006149159159036016196221000137218127159159030048100051079094007085081086046075000017035077008104179179244252252252252",
"252252252252252179222207101037077087096000001100004153013094051092151009151159001126160166130158020000054218160129002063159047084100002094014002153010038001151087087077050215178225252252252252",
"252252252252240225222220007077082077037153000015098001094013099048096159006160160063009059114178000000009218043011130160029010159006100017094092088051153010091046028017034074227178251252252252",
"252252252252179225231074074014087017086090155084014094046099014159063126166014130173142023181178000000000218061192173000068160016159028100028094092090017046152002035096074013116178179252252252",
"252252252244231224146002077153028089033155015051094094099007159014160107119176041069175175068168000000000218118139001137173014160112127000151002085051095153000100082082004077074231172231252252",
"252252252178231223074074010001010098096000152088094099014159000160014173114131177175175175132178000000000218183175175174001173119129150111159100048094007100153088151151087074077118172206252252",
"252252252231231202002077077017098000035080007094099075159159160006173014177175175199199199132172000000000219145199175175174000137160130129149151151007094075075017017046013010077076206171248252",
"252252219231231037037017091152089100017095097000100082159160032173014175175175199199204204134178000000000219188199199134145175156142119160060159151099092000095000086089033153077076203171244252",
"252252172232223074077038000014000098095014094099008159160126173059177175199199199204190207183178000000000219134200063067199175175119173053160014159100017094097000093028096096013077101171179252",
"252252233231195076076154089087099000073097007100151159150006173174175175199204204207065207187178000000000207164170206204199199175175021173017160159151099097095096028153000155030077039177164250",
"252251243232101077014017153013100004015094092016159161173176024175175199199204207198131072044178000000000207000179069207204199199175177119142160008159100008094090100017151087077077001197164243",
"252178239231074077047007000008096096095075099051063126160114177175199199204200107101219171179177000000000222000219150207207204199175175177173041029063151083094015092093048100151037028135164240",
"252164243215076077031017096152017152094007017127012150173024175175065197132172179172179000020232003000000222000239167222207204204199175177173063160159151100078017086000000000001008074101164218",
"252179243195077077082153075151028095094047151159128016173173175199199133218229003179218000000202055000000225000209167222207207204199175175173173160161159099015092155082154000151013077074164172",
"252227243147076077154001098015080097094097151159160024119174175199199066219229000207227000000138183000000227000188167222222207204199199175177173117000151151013094093075000154030049076050163155",
"252243243137076077051155090100008097092099151127160117041174175199204204243202000185243000000050185000000135000135167222222207207072199175177173014112159151047094099002047030004093077037166155",
"252243243124077077046154093100015000092099151058160150009175175199204207230147000055230000000105192000000000000101160223222207133188199175177173009149159151073097083035096154100153077031166155",
"252243243123010013017000000000028014085099151036160142000177175199204207205116000021201000000071209000000000000104130183187143192204199175139024009160159151079094075080093089007077028047160155",
"252243243115031047100076098099155007092099151063160150177175175199204207196101000003189000000187213000000000000124130136243223071199199175177173006129159151075092047000000002030152077076161155",
"252243243110013050153091100151047002097094159127160064173177175199204191199110000000136003000183207000000000000157110134000179179199199175173173024108159151038094153015100098015098077076161155",
"252226233115001074100000007038051030094095151046108011173177175199199184105137000000115016000000001000000000000204060000000173178199199177061173126017159100007094154051090155000091076074162155",
"252179243135015077100007089090098081097030151159161053173177175175056204044135011000014000000000000000000000000228053000000177179199175175009173160017106099030094096096082155000082077074164178",
"252225243215047077049100096007000153095013100151112160176173175175199204188115131000000000000000000000000000000071006000000179179175175177142029160149008099095097095098007152153017077074164218",
"252179243232074077013000010153153095028092099151016160024173177175175199204124204000000000000000000000000000000000000000055206137175175054176160160159051051094097081090048093098049076101164243",
"252248233232074000015154153048000084001094075151159045130130001175175199199157222003000000000000000000000000000000000000243223043175177119117160159127099017017100000051001000152077076120164244",
"252252233231104077076077089015080100154097030099151111160011173069175175199052196231000000000000000000000000000000000184201178131071012173012160159013097094010099152014154091015077074165164250",
"252252172232205074077014017014001001093095094085151159012167069142173175175182135207231042000000000000000000000000062138134175157060142006160159127099007097090017090088000153034028101171179252",
"252252245232231074017040046096096090010028075038099151159126160142119173131057175057232223000000000000000000000064110102175174041173014160161159047092035008095051038086153096077002122165232252",
"252252252232227124001077017034089028086090017097030151151121150068173130133174175175145219000000000000000000199145105175177021173043160161159012099094095092028090031077086007076074170171251252",
"252252252172231222074050028087031075090014092038094085033159106159130119176006174177174188000000000000000012188065174139043173014160006063046151094094028092075038089014077077007110172206252252",
"252252252244231223124013077040051087007090033093092078099048159125112166011173173006137186000000000000000020188053044176142032160012159048100099094010095000090074035082000074074176169232252252",
"252252252252179225222074040028049004089028088086081094048094093121159011160053043041173192000000017066065021188173117021160150028159014099046048030095095090010087049082074004124178179252252252",
"252252252252251225222157040077077087047082038075092051046073083100014159111032160126108228000000058182057023184117160159006159151014100017094038095093090010089000082077047101178178231252252252",
"252252252252252232222207115004077082076080028051051092033000094008099051046127149012060203001000065026000023184160002149127013100099017094015095095090028089087087077077047157178219252252252252",
"252252252252252251222207204074040040000049087086047079081095007097047073099205232053149188004000070024000021144111132227084099017094094008095093090047040089087077077007140179178248252252252252",
"252252252252252252226215204196051076047040047087089017090028010028048044030220023145115191021000070022000021216110057214013078063035085046090090090089087087077077013102179179230252252252252252",
"252252252252252252252179207199196074039047047049076088002093019135135175048187000000000135024001070043054021115000000217097065199063066048090090089077086077077031074206218222252252252252252252",
"252252252252252252252252219204199174011037050028077033082017157025000158081066005000000104056000054016020014135000000192085228000000220219088087004051077077037074204218218252252252252252252252",
"252252252252252252252252252224196196196049015077001087004082201000000000132023016000000101072000044016000013145000000132014214000000213057051047087077031013076219218218245252252252252252252252",
"252252252252252252252252252250207196174199050007077001077051203001000000146030034000000110183000029022000016189000000124031003000000201001087082077077002103219219219228252252252252252252252252",
"252252252252252252252252252252251207196157199101000077047015066058000000022007058000000124193000031023000022211000000118102000000000118082077077074028135227226219228252252252252252252252252252",
"252252252252252252252252252252252252229157157157141039040077031102000000000132064000000139209000043025000024230000000113034000000024045077074000074207233227224241252252252252252252252252252252",
"252252252252252252252252252252252252252249157156141207101007007113000000000064148000000158204000054027000026222000000192000000000137031077101138243243233196251252252252252252252252252252252252",
"252252252252252252252252252252252252252252252200143140137222101156018000000000136000000191206000054025000042206000000212000000000134076116231243243243157252252252252252252252252252252252252252",
"252252252252252252252252252252252252252252252252243141130124123223069004000000118000000201178000066024000055177000000019000000007198229232243243200247252252252252252252252252252252252252252252",
"252252252252252252252252252252252252252252252252252251239124123115110137232144039004000194159000180016000027149000008045202229216223230232201234252252252252252252252252252252252252252252252252",
"252252252252252252252252252252252252252252252252252252252251248138110103103101074136223232230228220220228232239223200200203212216220138210252252252252252252252252252252252252252252252252252252",
"252252252252252252252252252252252252252252252252252252252252252252238212144101074101104110115124135141143147158196197200202136208251252252252252252252252252252252252252252252252252252252252252",
"252252252252252252252252252252252252252252252252252252252252252252252252252251211198198148135135138141144148135116234235252252252252252252252252252252252252252252252252252252252252252252252252"
};
