/* XPM */
static char *Pixmap[] = {
"16 16 256 3",
"000 c #373535",
"001 c #383535",
"002 c #3A3735",
"003 c #3C3935",
"004 c #3E3A36",
"005 c #3F3B37",
"006 c #413C35",
"007 c #494136",
"008 c #4A4235",
"009 c #4D4335",
"010 c #4F4635",
"011 c #504837",
"012 c #534B3A",
"013 c #594D34",
"014 c #5B4E36",
"015 c #5C4C36",
"016 c #5D4D36",
"017 c #5D4D37",
"018 c #5D533E",
"019 c #625334",
"020 c #64553C",
"021 c #685836",
"022 c #6B5B36",
"023 c #6F5A38",
"024 c #705E33",
"025 c #776433",
"026 c #5B574C",
"027 c #6A5E42",
"028 c #886D37",
"029 c #886B38",
"030 c #896D38",
"031 c #8B6F3B",
"032 c #897133",
"033 c #907533",
"034 c #927537",
"035 c #977539",
"036 c #94753F",
"037 c #98773A",
"038 c #A17D3B",
"039 c #917846",
"040 c #907D4B",
"041 c #9C7D44",
"042 c #927F54",
"043 c #A3883A",
"044 c #A8823C",
"045 c #B78E3C",
"046 c #B88E3C",
"047 c #B29233",
"048 c #B69331",
"049 c #BA9730",
"050 c #BA9535",
"051 c #9C895E",
"052 c #8D8569",
"053 c #AB9145",
"054 c #A89662",
"055 c #A99764",
"056 c #C2953E",
"057 c #C5973E",
"058 c #C39B35",
"059 c #C29D37",
"060 c #C69E33",
"061 c #C79B39",
"062 c #C79A3A",
"063 c #C6983D",
"064 c #C7993D",
"065 c #C8993D",
"066 c #C99A3D",
"067 c #C99B3D",
"068 c #CA9C3F",
"069 c #CC9F3A",
"070 c #C7A232",
"071 c #C9A136",
"072 c #CDA433",
"073 c #CCA538",
"074 c #DAAE2F",
"075 c #D3A539",
"076 c #D4A53B",
"077 c #D6A738",
"078 c #D6A73A",
"079 c #D7AE38",
"080 c #D8AC32",
"081 c #DBAD36",
"082 c #DDAE36",
"083 c #DEAF35",
"084 c #DDAD3B",
"085 c #E7B92F",
"086 c #E9BA2E",
"087 c #EABB2E",
"088 c #EBBC2E",
"089 c #ECBD2E",
"090 c #E0B134",
"091 c #E2B436",
"092 c #E5B731",
"093 c #E2B738",
"094 c #E8B930",
"095 c #E9BC39",
"096 c #C69942",
"097 c #C0A143",
"098 c #CAA049",
"099 c #C7AC5C",
"100 c #CEA754",
"101 c #D1AB55",
"102 c #D8B240",
"103 c #D9B64D",
"104 c #D0AD61",
"105 c #D6B468",
"106 c #E7BE40",
"107 c #E5BD47",
"108 c #E3BF4F",
"109 c #EDC23F",
"110 c #F1C139",
"111 c #F5C439",
"112 c #F5C538",
"113 c #F7C638",
"114 c #F7C739",
"115 c #F8C839",
"116 c #F9C939",
"117 c #DFC371",
"118 c #EAC247",
"119 c #ECC242",
"120 c #ECC345",
"121 c #ECC346",
"122 c #ECC64F",
"123 c #ECC653",
"124 c #ECC755",
"125 c #EDC756",
"126 c #EDC857",
"127 c #FACD46",
"128 c #FDD358",
"129 c #E6C665",
"130 c #EDCB65",
"131 c #EDCB66",
"132 c #EACD77",
"133 c #EED077",
"134 c #EED179",
"135 c #EDD27D",
"136 c #EDD27E",
"137 c #EDD27F",
"138 c #EED27C",
"139 c #AEA786",
"140 c #C9B982",
"141 c #CEB983",
"142 c #D6BF82",
"143 c #DBC683",
"144 c #E0C584",
"145 c #EFD585",
"146 c #EFD687",
"147 c #EFD78B",
"148 c #E7D197",
"149 c #E4D19A",
"150 c #E9D396",
"151 c #EBD79D",
"152 c #FEDE82",
"153 c #FCDF8C",
"154 c #F2DE9B",
"155 c #E2D6A5",
"156 c #FFE084",
"157 c #FBE091",
"158 c #FDE399",
"159 c #FDE49E",
"160 c #EFE3AD",
"161 c #FAE5A1",
"162 c #F8E5A5",
"163 c #F5E8B6",
"164 c #F2E8BB",
"165 c #F8E9B0",
"166 c #F8E8B6",
"167 c #F9EDB9",
"168 c #FFFFFE",
"169 c Gray100",
"170 c black",
"171 c black",
"172 c black",
"173 c black",
"174 c black",
"175 c black",
"176 c black",
"177 c black",
"178 c black",
"179 c black",
"180 c black",
"181 c black",
"182 c black",
"183 c black",
"184 c black",
"185 c black",
"186 c black",
"187 c black",
"188 c black",
"189 c black",
"190 c black",
"191 c black",
"192 c black",
"193 c black",
"194 c black",
"195 c black",
"196 c black",
"197 c black",
"198 c black",
"199 c black",
"200 c black",
"201 c black",
"202 c black",
"203 c black",
"204 c black",
"205 c black",
"206 c black",
"207 c black",
"208 c black",
"209 c black",
"210 c black",
"211 c black",
"212 c black",
"213 c black",
"214 c black",
"215 c black",
"216 c black",
"217 c black",
"218 c black",
"219 c black",
"220 c black",
"221 c black",
"222 c black",
"223 c black",
"224 c black",
"225 c black",
"226 c black",
"227 c black",
"228 c black",
"229 c black",
"230 c black",
"231 c black",
"232 c black",
"233 c black",
"234 c black",
"235 c black",
"236 c black",
"237 c black",
"238 c black",
"239 c black",
"240 c black",
"241 c black",
"242 c black",
"243 c black",
"244 c black",
"245 c black",
"246 c black",
"247 c black",
"248 c black",
"249 c black",
"250 c black",
"251 c black",
"252 c black",
"253 c black",
"254 c black",
"255 c black",
"169169169169169169169169168169169169169169169169",
"169169169169169101068065045017057163169169169169",
"169169169162057084095002006022111116063161169169",
"169169159007028021072087032049019083034037153169",
"169169096093010048119123026124121008112110046169",
"169165014091088004099138000140005108047114076128",
"169144079060106129146055000127147027118092003038",
"169064059094103134156152052000154137126024115067",
"168016000074124136151149155000141145012070082029",
"169023077094122133042020000000000135125033073066",
"169098078113109130145000000000150018120013114057",
"169165030081085097131132000143040011089058062128",
"169169100061050086043053054142102025090075044169",
"169169158015069117071000051104080160009035157169",
"169169169166105031000000039164036041056161169169",
"169169169169169101167001139107148163169169169169"
};
